<?xml version="1.0" encoding="UTF-8" standalone="no"?>
<!-- Created with Inkscape (http://www.inkscape.org/) -->

<svg
   xmlns:dc="http://purl.org/dc/elements/1.1/"
   xmlns:cc="http://creativecommons.org/ns#"
   xmlns:rdf="http://www.w3.org/1999/02/22-rdf-syntax-ns#"
   xmlns:svg="http://www.w3.org/2000/svg"
   xmlns="http://www.w3.org/2000/svg"
   xmlns:sodipodi="http://sodipodi.sourceforge.net/DTD/sodipodi-0.dtd"
   xmlns:inkscape="http://www.inkscape.org/namespaces/inkscape"
   viewBox="0 0 150 86"
   id="svg4256"
   version="1.1"
   inkscape:version="0.91 r13725"
   sodipodi:docname="pier_a2b2c2d6.svg"
   width="150"
   height="86">
  <defs
     id="defs4258" />
  <sodipodi:namedview
     id="base"
     pagecolor=""
     bordercolor="#666666"
     borderopacity="1.0"
     inkscape:pageopacity="0.0"
     inkscape:pageshadow="2"
     inkscape:document-units="mm"
     inkscape:current-layer="g4193"
     showgrid="false"
     units="mm"
     inkscape:window-width="1920"
     inkscape:window-height="1017"
     inkscape:window-x="-8"
     inkscape:window-y="-8"
     inkscape:window-maximized="1"
     inkscape:zoom="7.9999999"
     inkscape:cx="124.74011"
     inkscape:cy="49.49546" />
  <metadata
     id="metadata4261">
    <rdf:RDF>
      <cc:Work
         rdf:about="">
        <dc:format>image/svg+xml</dc:format>
        <dc:type
           rdf:resource="http://purl.org/dc/dcmitype/StillImage" />
        <dc:title />
      </cc:Work>
    </rdf:RDF>
  </metadata>
  <g
     inkscape:label="temp"
     inkscape:groupmode="layer"
     id="layer1"
     transform="translate(0,-966.36206)"
     style="display:none"
     sodipodi:insensitive="true">
    <path
       style="fill:none;fill-rule:evenodd;stroke:#000000;stroke-width:1px;stroke-linecap:butt;stroke-linejoin:miter;stroke-opacity:1"
       d="m 1.0366403,983.0019 0,6.3559 115.6779697,0 0,-6.3559 z"
       id="path4160"
       inkscape:connector-curvature="0" />
    <path
       style="fill:none;fill-rule:evenodd;stroke:#000000;stroke-width:0.6388213px;stroke-linecap:butt;stroke-linejoin:miter;stroke-opacity:1"
       d="m 0.85605028,979.0078 0,2.5857 116.03914972,0 0,-2.5857 z"
       id="path4162"
       inkscape:connector-curvature="0" />
  </g>
  <g
     inkscape:groupmode="layer"
     id="layer2"
     inkscape:label="pier template"
     style="display:none"
     transform="translate(0,-64)"
     sodipodi:insensitive="true">
    <path
       style="fill:#000000"
       d=""
       id="path4163"
       inkscape:connector-curvature="0" />
    <path
       style="fill:#000000"
       d=""
       id="path4161"
       inkscape:connector-curvature="0" />
    <path
       style="opacity:0.2518797;fill:#000000"
       d="m 175.53629,133.15143 0,-5.53974 1.84657,0 1.84658,0 0,5.53974 0,5.53975 -1.84658,0 -1.84657,0 z m 15.28557,0 0,-5.53974 1.84658,0 1.84658,0 0,5.53974 0,5.53975 -1.84658,0 -1.84658,0 z m 52.93529,0 0,-5.53974 1.84656,0 1.8466,0 0,5.53974 0,5.53975 -1.8466,0 -1.84656,0 z m 15.28554,0 0,-5.53974 1.8466,0 1.84658,0 0,5.53974 0,5.53975 -1.84658,0 -1.8466,0 z m -144.44353,-4.92421 0,-5.53974 1.84658,0 1.84658,0 0,5.53974 0,5.53974 -1.84658,0 -1.84658,0 z m 15.28557,0 0,-5.53974 1.84658,0 1.84659,0 0,5.53974 0,5.53974 -1.84659,0 -1.84658,0 z m 45.65156,-4.00092 0,-2.66728 9.48937,0 9.48936,0 0,2.66728 0,2.66727 -9.48936,0 -9.48937,0 z m 68.22086,0 0,-2.66728 9.48934,0 9.48938,0 0,2.66728 0,2.66727 -9.48938,0 -9.48934,0 z m -129.15799,-4.92421 0,-2.66728 9.48937,0 9.48937,0 0,2.66728 0,2.66727 -9.48937,0 -9.48937,0 z m 65.65616,-8.30961 0,-9.74583 4.77034,0 4.77033,0 0,9.74583 0,9.74584 -4.77033,0 -4.77034,0 z m 68.22084,0 0,-9.74583 4.77033,0 4.77034,0 0,9.74583 0,9.74584 -4.77034,0 -4.77033,0 z m -129.15796,-0.1286 0,-4.95027 4.77033,-4.76951 4.77033,-4.769503 0,9.719773 0,9.71978 -4.77033,0 -4.77033,0 z m 79.40291,-0.69207 0,-5.53974 1.84659,0 1.84657,0 0,5.53974 0,5.53974 -1.84657,0 -1.84659,0 z m 15.28558,0 0,-5.53974 1.84657,0 1.84658,0 0,5.53974 0,5.53974 -1.84658,0 -1.84657,0 z m 52.93528,0 0,-5.53974 1.84657,0 1.84657,0 0,5.53974 0,5.53974 -1.84657,0 -1.84657,0 z m 15.28558,0 0,-5.53974 1.84656,0 1.84658,0 0,5.53974 0,5.53974 -1.84658,0 -1.84656,0 z m -177.68198,-5.28326 0,-4.975503 4.7574,0 4.75741,0 11.60533,-11.647497 11.60534,-11.647482 0,5.056395 0,5.056394 -11.56693,11.5666 -11.56694,11.566593 -4.79581,0 -4.7958,0 z m 94.17554,-3.64187 0,-2.667283 9.48937,0 9.48936,0 0,2.667283 0,2.66729 -9.48936,0 -9.48937,0 z m 68.22086,0 0,-2.667283 9.48936,0 9.48936,0 0,2.667283 0,2.66729 -9.48936,0 -9.48936,0 z m -86.68665,-5.591033 0,-4.9755 4.75741,0 4.75741,0 11.60533,-11.647492 11.60534,-11.647481 0,5.056395 0,5.056393 -11.56694,11.566605 -11.56694,11.566583 -4.79581,0 -4.7958,0 z m 68.22084,0 0,-4.9755 4.75741,0 4.75741,0 11.60534,-11.647492 11.60533,-11.647481 0,5.056395 0,5.056393 -11.56694,11.566605 -11.56693,11.566583 -4.79579,0 -4.79583,0 z m -145.12111,-1.59011 -1.23744,-5.02679 1.11139,0 1.11139,0 0,-1.333646 0,-1.333634 1.94917,0 1.94917,0 0,1.333634 0,1.333646 1.07717,0 1.07717,0 0,-1.333646 0,-1.333634 1.94917,0 1.94917,0 0,1.333634 0,1.333646 1.11651,0 1.11653,0 -0.54215,2.17998 c -0.29818,1.19899 -0.85349,3.46106 -1.23404,5.02681 l -0.69192,2.84679 -4.73193,0 -4.73192,0 z m 11.5035,4.00092 c 0.0398,-0.19748 0.52806,-2.27488 1.08495,-4.61645 0.55689,-2.34156 1.03651,-4.35894 1.06582,-4.483065 0.0494,-0.209148 0.0118,-0.227942 -0.51278,-0.256476 l -0.56604,-0.03073 6.02965,-6.028178 6.02965,-6.028162 4.28179,0.02676 4.28179,0.02675 -10.88362,10.874285 c -9.4241,9.416036 -10.87392,10.826156 -10.81121,10.515236 z m 88.58161,-5.25803 0,-4.950269 4.77032,-4.769503 4.77033,-4.769505 0,9.719773 0,9.719784 -4.77033,0 -4.77032,0 z m 68.22085,0 0,-4.950269 4.77032,-4.769503 4.77032,-4.769505 0,9.719773 0,9.719784 -4.77032,0 -4.77032,0 z m -79.35162,-14.028455 11.38688,-11.387246 4.30869,0 4.30868,0 -11.38688,11.387246 -11.3869,11.387245 -4.30869,0 -4.30868,0 z m 54.97628,6.052674 -1.23745,-5.026788 1.11139,0 1.11139,0 0,-1.333651 0,-1.333635 1.94916,0 1.94916,0 0,1.333635 0,1.333651 1.07717,0 1.07719,0 0,-1.333651 0,-1.333635 1.94916,0 1.94918,0 0,1.333635 0,1.333651 1.1165,0 1.11653,0 -0.54215,2.179977 c -0.29818,1.19899 -0.85348,3.461057 -1.23404,5.026806 l -0.6919,2.846796 -4.73194,0 -4.73192,0 z m 11.50349,4.00092 c 0.0397,-0.19748 0.52805,-2.27488 1.08496,-4.61645 0.55688,-2.341566 1.03649,-4.358947 1.0658,-4.483069 0.0495,-0.209149 0.0126,-0.227942 -0.51277,-0.256477 l -0.56606,-0.03073 6.02968,-6.028176 6.02962,-6.028164 4.28182,0.02676 4.28178,0.02676 -10.88363,10.874293 c -9.42412,9.416036 -10.87391,10.826164 -10.8112,10.515253 z M 126.53987,70.88071 l -1.23742,-5.026805 1.11138,0 1.11139,0 0,-1.333634 0,-1.333636 1.94917,0 1.94917,0 0,1.333636 0,1.333634 1.07717,0 1.07717,0 0,-1.333634 0,-1.333636 1.94916,0 1.94917,0 0,1.333636 0,1.333634 1.11653,0 1.11652,0 -0.54215,2.179995 c -0.29818,1.199005 -0.8535,3.46107 -1.23404,5.026804 l -0.69192,2.846811 -4.73193,0 -4.73192,0 z m 143.93062,-9.232896 -1.23745,-5.02679 1.11138,0 1.11141,0 0,-1.333649 0,-1.333635 1.94916,0 1.94917,0 0,1.333635 0,1.333649 1.07717,0 1.07716,0 0,-1.333649 0,-1.333635 1.94918,0 1.94916,0 0,1.333635 0,1.333649 1.11653,0 1.11651,0 -0.54214,2.179994 c -0.29819,1.198989 -0.85349,3.461056 -1.23404,5.02679 l -0.69191,2.846813 -4.73193,0 -4.73193,0 z m -82.82885,-13.849342 0,-5.53974 1.84658,0 1.84658,0 0,5.53974 0,5.53974 -1.84658,0 -1.84658,0 z m 15.28557,0 0,-5.53974 1.84658,0 1.84658,0 0,5.53974 0,5.53974 -1.84658,0 -1.84658,0 z m -97.8687,-0.307764 0,-5.53974 1.84658,0 1.84658,0 0,5.53974 0,5.539739 -1.84658,0 -1.84658,0 z m 15.28557,0 0,-5.53974 1.84658,0 1.84658,0 0,5.53974 0,5.539739 -1.84658,0 -1.84658,0 z m 22.67189,0 0,-5.53974 1.84658,0 1.84658,0 0,5.53974 0,5.539739 -1.84658,0 -1.84658,0 z m 15.28558,0 0,-5.53974 1.84658,0 1.84657,0 0,5.53974 0,5.539739 -1.84657,0 -1.84658,0 z m 29.34009,-8.617368 0,-2.667283 9.48937,0 9.48936,0 0,2.667283 0,2.667286 -9.48936,0 -9.48937,0 z m -82.58313,-0.307763 0,-2.667283 9.48936,0 9.48937,0 0,2.667283 0,2.667284 -9.48937,0 -9.48936,0 z m 37.95746,0 0,-2.667283 9.48937,0 9.48936,0 0,2.667283 0,2.667284 -9.48936,0 -9.48937,0 z m 49.34471,-12.926049 0,-9.745831 4.77033,0 4.77033,0 0,9.745831 0,9.745829 -4.77033,0 -4.77033,0 z m -82.58314,-0.307765 0,-9.745846 4.77033,0 4.77033,0 0,9.745846 0,9.745832 -4.77033,0 -4.77033,0 z m 37.95746,0 0,-9.745846 4.77034,0 4.77032,0 0,9.745846 0,9.745832 -4.77032,0 -4.77034,0 z m 44.61167,-10.30698 c -0.0286,-0.0286 -2.51858,-0.893672 -5.53315,-1.922251 l -5.48102,-1.870133 -1.52791,-0.05444 -1.5279,-0.05444 -0.75466,-2.1435686 -0.75467,-2.143584 0.5698,-1.062281 0.56981,-1.062311 1.73841,0 1.73841,0 0,-1.333633 0,-1.33365 1.94916,0 1.94917,0 0,1.33365 0,1.333633 1.07717,0 1.07718,0 0,-1.333633 0,-1.33365 1.94917,0 1.94916,0 0,1.33365 0,1.333633 5.79621,0 5.7962,0 0,-1.333633 0,-1.33365 1.94917,0 1.94917,0 0,1.33365 0,1.333633 1.07717,0 1.07717,0 0,-1.333633 0,-1.33365 1.94916,0 1.94917,0 0,1.33365 0,1.333633 1.73841,0 1.7384,0 0.56982,1.062311 0.5698,1.062281 -0.75466,2.143584 -0.75467,2.1435686 -1.5279,0.05444 -1.5279,0.05444 -5.48845,1.894647 -5.48844,1.894648 -4.77693,0.02752 c -2.6273,0.0153 -4.80037,0.0046 -4.82903,-0.02462 z m -83.75965,-5.2863526 -1.23743,-5.026806 1.11138,0 1.11139,0 0,-1.333635 0,-1.333648 1.94917,0 1.94917,0 0,1.333648 0,1.333635 1.07717,0 1.07718,0 0,-1.333635 0,-1.333648 1.94916,0 1.94917,0 0,1.333648 0,1.333635 1.11652,0 1.11653,0 -0.54216,2.179993 c -0.29817,1.19899 -0.85349,3.4610566 -1.23404,5.0268076 l -0.69191,2.846808 -4.73193,0 -4.73193,0 z m 35.55741,3.1152896 c -2.00302,-1.049223 -3.67542,-1.938276 -3.71643,-1.975665 -0.041,-0.03745 -0.213,-1.2439316 -0.38217,-2.6811986 -0.16919,-1.437284 -0.33465,-2.809423 -0.36772,-3.04923 l -0.0601,-0.436002 0.51922,0 0.51923,0 0,-1.333635 0,-1.333648 1.94917,0 1.94917,0 0,1.333648 0,1.333635 1.07716,0 1.07717,0 0,-1.333635 0,-1.333648 1.94917,0 1.94917,0 0,1.333648 0,1.333635 3.3341,0 3.3341,0 0,5.026806 0,5.0268026 -4.74468,-0.0014 -4.74469,-0.0014 -3.64186,-1.907691 z M 7.4975839,-3.0850446 l 0,-9.7458294 4.7703301,0 4.77031,0 0,9.7458294 0,9.745847 -4.77031,0 -4.7703301,0 z m 25.6469301,4.795578 0,-4.950286 4.770333,-4.769502 4.770322,-4.7695034 0,9.7197714 0,9.719789 -4.770322,0 -4.770333,0 z M 9.5493239,-42.58131 l 0,-2.667287 9.4893601,0 9.48939,0 0,2.667287 0,2.667283 -9.48939,0 -9.4893601,0 z m 4.8216301,-32.82808 0,-5.539734 3.38539,0 3.3854,0 0,5.539734 0,5.53974 -3.3854,0 -3.38539,0 z m 30.160798,0 0,-5.539734 1.846572,0 1.846583,0 0,5.539734 0,5.53974 -1.846583,0 -1.846572,0 z m 15.285564,0 0,-5.539734 1.84658,0 1.846581,0 0,5.539734 0,5.53974 -1.846581,0 -1.84658,0 z m 25.031414,0 0,-5.539734 1.846578,0 1.846581,0 0,5.539734 0,5.53974 -1.846581,0 -1.846578,0 z m 7.694074,0 0,-5.539734 1.84658,0 1.84658,0 0,5.539734 0,5.53974 -1.84658,0 -1.84658,0 z m 7.591496,0 0,-5.539734 1.84658,0 1.84658,0 0,5.539734 0,5.53974 -1.84658,0 -1.84658,0 z m 21.74859,0 0,-5.539734 1.84658,0 1.84658,0 0,5.539734 0,5.53974 -1.84658,0 -1.84658,0 z m 5.23198,0 0,-5.539734 1.84658,0 1.84658,0 0,5.539734 0,5.53974 -1.84658,0 -1.84658,0 z m 5.12939,0 0,-5.539734 1.84658,0 1.84658,0 0,5.539734 0,5.53974 -1.84658,0 -1.84658,0 z m 4.92421,0 0,-5.539734 1.84658,0 1.84658,0 0,5.539734 0,5.53974 -1.84658,0 -1.84658,0 z m 25.44176,0 0,-5.539734 1.84658,0 1.84658,0 0,5.539734 0,5.53974 -1.84658,0 -1.84658,0 z m 5.23197,0 0,-5.539734 1.84659,0 1.84658,0 0,5.539734 0,5.53974 -1.84658,0 -1.84659,0 z m -36.0083,-36.98288 0,-4.97551 4.75741,0 4.75741,0 11.60533,-11.64749 11.60534,-11.6475 0,5.05641 0,5.05638 -11.56694,11.56662 -11.56693,11.56659 -4.79581,0 -4.79581,0 z m 52.11458,0 0,-4.97551 4.75741,0 4.75741,0 11.60533,-11.64749 11.60534,-11.6475 0,5.05641 0,5.05638 -11.56694,11.56662 -11.56694,11.56659 -4.79581,0 -4.7958,0 z m -40.06051,-16.8757 11.38689,-11.38725 4.30868,0 4.30868,0 -11.38688,11.38725 -11.3869,11.38724 -4.30868,0 -4.30869,0 z m 38.86998,6.05269 -1.23743,-5.02679 1.11139,0 1.1114,0 0,-1.33365 0,-1.33364 1.94917,0 1.94916,0 0,1.33364 0,1.33365 1.07718,0 1.07717,0 0,-1.33365 0,-1.33364 1.94917,0 1.94916,0 0,1.33364 0,1.33365 1.11652,0 1.11653,0 -0.54215,2.17998 c -0.29819,1.19899 -0.8535,3.46107 -1.23405,5.0268 l -0.69192,2.84682 -4.73192,0 -4.73193,0 z m 11.50351,4.00091 c 0.0398,-0.19746 0.52806,-2.27489 1.08496,-4.61645 0.55688,-2.34156 1.0365,-4.35894 1.06581,-4.48306 0.0494,-0.20916 0.0118,-0.22794 -0.51277,-0.25648 l -0.56605,-0.0307 6.02965,-6.02818 6.02965,-6.02815 4.28179,0.0268 4.2818,0.0268 -10.88363,10.87429 c -9.4241,9.416 -10.87392,10.82614 -10.81121,10.51523 z m -103.784413,-3.53622 c -0.02862,-0.0286 -2.518579,-0.89366 -5.533145,-1.92225 l -5.481034,-1.87012 -1.527899,-0.0546 -1.527899,-0.0544 -0.754671,-2.14359 -0.754664,-2.14356 0.569811,-1.0623 0.569801,-1.0623 1.738413,0 1.738402,0 0,-1.33364 0,-1.33363 1.949168,0 1.949166,0 0,1.33363 0,1.33364 1.077171,0 1.07717,0 0,-1.33364 0,-1.33363 1.949169,0 1.949166,0 0,1.33363 0,1.33364 5.79621,0 5.796198,0 0,-1.33364 0,-1.33363 1.94917,0 1.94917,0 0,1.33363 0,1.33364 1.07717,0 1.07717,0 0,-1.33364 0,-1.33363 1.94916,0 1.94917,0 0,1.33363 0,1.33364 1.73842,0 1.7384,0 0.56981,1.0623 0.5698,1.0623 -0.75466,2.14356 -0.75467,2.14359 -1.5279,0.0544 -1.5279,0.0546 -5.48844,1.89466 -5.48845,1.89463 -4.776925,0.0276 c -2.627301,0.0154 -4.800366,0.005 -4.829028,-0.0245 z m -82.6311731,-5.7993 -1.23743,-5.02679 1.1114,0 1.11138,0 0,-1.33364 0,-1.33363 1.9491701,0 1.94917,0 0,1.33363 0,1.33364 1.07715,0 1.07717,0 0,-1.33364 0,-1.33363 1.94916,0 1.94919,0 0,1.33363 0,1.33364 1.11653,0 1.11651,0 -0.54214,2.17998 c -0.29818,1.19901 -0.8535,3.46108 -1.23404,5.0268 l -0.69191,2.84683 -4.73195,0 -4.7319301,0 z m 39.3531631,2.19203 c -2.003041,-1.04923 -3.675433,-1.9383 -3.71644,-1.97567 -0.04108,-0.0375 -0.212999,-1.24394 -0.382176,-2.68121 -0.169176,-1.43728 -0.334654,-2.80944 -0.36772,-3.04923 l -0.0601,-0.436 0.519222,0 0.519222,0 0,-1.33364 0,-1.33364 1.949167,0 1.949174,0 0,1.33364 0,1.33364 1.077166,0 1.077176,0 0,-1.33364 0,-1.33364 1.949156,0 1.949167,0 0,1.33364 0,1.33364 3.334106,0 3.334099,0 0,5.02681 0,5.02679 -4.744673,-9.1e-4 -4.74469,-9.1e-4 -3.641868,-1.90769 z m 158.743743,-20.04228 -1.23743,-5.0268 1.1114,0 1.11139,0 0,-1.33365 0,-1.33363 1.94916,0 1.94917,0 0,1.33363 0,1.33365 1.07717,0 1.07717,0 0,-1.33365 0,-1.33363 1.94917,0 1.94916,0 0,1.33363 0,1.33365 1.11653,0 1.11653,0 -0.54214,2.17999 c -0.29819,1.19901 -0.85351,3.46104 -1.23406,5.0268 l -0.69191,2.84681 -4.73194,0 -4.73192,0 z"
       id="path4176"
       inkscape:connector-curvature="0"
       sodipodi:nodetypes="cccccccccccccccccccccccccccccccccccccccccccccccccccccccccccccccccccccccccccccccccccccccccccccccccccccccccccccccccccccccccccccccccccccccccccccccccccccccccccccccccccccccccccccccccccccccccccccccccccccccccccccccccccccccccccccsscccccscccccccscccccccccccccccccccccccccccccccccccccccccccccccccsscccccccccccccscccccccccccccccccccccsscccccccccccccccccccccccccscccccccccccccccccccccccccccccccccccccccccccccccccccccccccccccccccccccccccccccccccccccccccccccccccccccccccccccccccsccccccccccccccccccccccccccccccccccccccccccccccccccccccccccccccccccccccccssccccccsscccccccccccccccccccccccccccccccccccccccccccccccccccccccccccccccccccccccccccccccccccccccccccccccccccccccccccccccccccccccccccccccccccccccccccccccccccccccccccccccccccccccccccccccccccccccccccccccccccccccccccccccccccccccsscccccscccccccscccsccccccccccccccccccccccccccccccccccccccccccccccccccccccccccccccccccccccccssccccccsccccccccccccccccccccccccccccccccccccccccccccccsscccc" />
  </g>
  <g
     transform="translate(0,-64)"
     style="display:inline"
     inkscape:label="p1"
     id="g4193"
     inkscape:groupmode="layer">
    <path
       inkscape:connector-curvature="0"
       id="path4195"
       d=""
       style="fill:#000000" />
    <path
       inkscape:connector-curvature="0"
       id="path4197"
       d=""
       style="fill:#000000" />
    <path
       style="display:inline;fill:#000000"
       d=""
       id="path4163-3"
       inkscape:connector-curvature="0" />
    <path
       style="display:inline;fill:#000000"
       d=""
       id="path4161-1"
       inkscape:connector-curvature="0" />
    <path
       style="display:inline;opacity:1;fill:#000000"
       d="m 107.66075,143.56788 0,-5.53975 1.84657,0 1.84658,0 0,5.53975 0,5.53975 -1.84658,0 -1.84657,0 z m 15.28557,0 0,-5.53975 1.84658,0 1.84658,0 0,5.53975 0,5.53975 -1.84658,0 -1.84658,0 z"
       id="path4176-2-1"
       inkscape:connector-curvature="0"
       sodipodi:nodetypes="cccccccccccccccccc" />
    <path
       style="display:inline;opacity:1;fill:#000000"
       d="m 130.83305,120.58842 0,-5.53974 1.84659,0 1.84657,0 0,5.53974 0,5.53974 -1.84657,0 -1.84659,0 z m 15.28558,0 0,-5.53974 1.84657,0 1.84658,0 0,5.53974 0,5.53974 -1.84658,0 -1.84657,0 z"
       id="path4176-2-1-6"
       inkscape:connector-curvature="0"
       sodipodi:nodetypes="cccccccccccccccccc" />
    <path
       style="display:inline;opacity:1;fill:#000000"
       d="m 107.65821,134.64516 0,-2.66728 9.48937,0 9.48936,0 0,2.66728 0,2.66727 -9.48936,0 -9.48937,0 z"
       id="path4176-2-1-9-6"
       inkscape:connector-curvature="0"
       sodipodi:nodetypes="ccccccccc" />
    <path
       style="display:inline;opacity:1;fill:#000000"
       d="m 130.82332,111.65089 0,-2.66728 9.48937,0 9.48936,0 0,2.66728 0,2.6673 -9.48936,0 -9.48937,0 z"
       id="path4176-2-1-9-6-8"
       inkscape:connector-curvature="0"
       sodipodi:nodetypes="ccccccccc" />
    <path
       style="display:inline;opacity:1;fill:#000000"
       d="m 112.36322,121.40196 0,-9.74585 4.77034,0 4.77033,0 0,9.74585 0,9.74584 -4.77033,0 -4.77034,0 z"
       id="path4176-2-1-9-9"
       inkscape:connector-curvature="0"
       sodipodi:nodetypes="ccccccccc" />
    <path
       style="display:inline;opacity:1;fill:#000000"
       d="m 135.56743,103.22606 0,-4.950264 4.77032,-4.76951 4.77033,-4.7695 0,9.71977 0,9.719784 -4.77033,0 -4.77032,0 z"
       id="path4176-2-1-9-9-5"
       inkscape:connector-curvature="0"
       sodipodi:nodetypes="ccccccccc" />
    <path
       style="display:inline;opacity:1;fill:#000000"
       d="m 112.36717,106.07189 0,-4.97551 4.75741,0 4.75741,0 11.60533,-11.647489 11.60534,-11.6475 0,5.05641 0,5.05638 -11.56694,11.56662 -11.56694,11.566589 -4.79581,0 -4.7958,0 z m -1.19053,-10.823009 -1.23743,-5.02679 1.11139,0 1.1114,0 0,-1.33365 0,-1.33364 1.94917,0 1.94916,0 0,1.33364 0,1.33365 1.07718,0 1.07717,0 0,-1.33365 0,-1.33364 1.94917,0 1.94916,0 0,1.33364 0,1.33365 1.11652,0 1.11653,0 -0.54215,2.17998 c -0.29819,1.19899 -0.8535,3.46107 -1.23405,5.0268 l -0.69192,2.846819 -4.73192,0 -4.73193,0 z m 11.50351,4.00091 c 0.0398,-0.19746 0.52806,-2.27489 1.08496,-4.61645 0.55688,-2.34156 1.0365,-4.35894 1.06581,-4.48306 0.0494,-0.20916 0.0118,-0.22794 -0.51277,-0.25648 l -0.56605,-0.0307 6.02965,-6.02818 6.02965,-6.02815 4.28179,0.0268 4.2818,0.0268 -10.88363,10.87429 c -9.4241,9.416 -10.87392,10.82614 -10.81121,10.51523 z m 11.68132,-27.18577 -1.23743,-5.0268 1.1114,0 1.11139,0 0,-1.33365 0,-1.33363 1.94916,0 1.94917,0 0,1.33363 0,1.33365 1.07717,0 1.07717,0 0,-1.33365 0,-1.33363 1.94917,0 1.94916,0 0,1.33363 0,1.33365 1.11653,0 1.11653,0 -0.54214,2.17999 c -0.29819,1.19901 -0.85351,3.46104 -1.23406,5.0268 l -0.69191,2.84681 -4.73194,0 -4.73192,0 z"
       id="path4176-9"
       inkscape:connector-curvature="0"
       sodipodi:nodetypes="cccccccccccccccccccccccccccccccccsscccccscccccccsccccccccccccccccccccccsscccc" />
  </g>
</svg>
