<?xml version="1.0" encoding="UTF-8" standalone="no"?>
<!-- Created with Inkscape (http://www.inkscape.org/) -->

<svg
   xmlns:dc="http://purl.org/dc/elements/1.1/"
   xmlns:cc="http://creativecommons.org/ns#"
   xmlns:rdf="http://www.w3.org/1999/02/22-rdf-syntax-ns#"
   xmlns:svg="http://www.w3.org/2000/svg"
   xmlns="http://www.w3.org/2000/svg"
   xmlns:sodipodi="http://sodipodi.sourceforge.net/DTD/sodipodi-0.dtd"
   xmlns:inkscape="http://www.inkscape.org/namespaces/inkscape"
   viewBox="0 0 150 86"
   id="svg4256"
   version="1.1"
   inkscape:version="0.91 r13725"
   sodipodi:docname="pier_a3b1c1d2.svg"
   width="150"
   height="86">
  <defs
     id="defs4258" />
  <sodipodi:namedview
     id="base"
     pagecolor=""
     bordercolor="#666666"
     borderopacity="1.0"
     inkscape:pageopacity="0.0"
     inkscape:pageshadow="2"
     inkscape:document-units="mm"
     inkscape:current-layer="g4193"
     showgrid="false"
     units="mm"
     inkscape:window-width="1920"
     inkscape:window-height="1017"
     inkscape:window-x="-8"
     inkscape:window-y="-8"
     inkscape:window-maximized="1"
     inkscape:zoom="8"
     inkscape:cx="61.093563"
     inkscape:cy="51.563288" />
  <metadata
     id="metadata4261">
    <rdf:RDF>
      <cc:Work
         rdf:about="">
        <dc:format>image/svg+xml</dc:format>
        <dc:type
           rdf:resource="http://purl.org/dc/dcmitype/StillImage" />
        <dc:title />
      </cc:Work>
    </rdf:RDF>
  </metadata>
  <g
     transform="translate(0,-64)"
     style="display:inline"
     inkscape:label="p1"
     id="g4193"
     inkscape:groupmode="layer">
    <path
       sodipodi:nodetypes="ccccccccccccccccccccccccccc"
       inkscape:connector-curvature="0" 
       class="a_pile"
       d="m 115.36767,110.40206 0,-5.53973 1.84658,0 1.84658,0 0,5.53973 0,5.53974 -1.84658,0 -1.84658,0 z m 7.69407,0 0,-5.53973 1.84658,0 1.84658,0 0,5.53973 0,5.53974 -1.84658,0 -1.84658,0 z m 7.5915,0 0,-5.53973 1.84658,0 1.84658,0 0,5.53973 0,5.53974 -1.84658,0 -1.84658,0 z" />
    <path
       sodipodi:nodetypes="ccccccccc"
       inkscape:connector-curvature="0" 
       class="a_pilecap"
       d="m 115.35797,101.50753 0,-2.667274 9.48936,0 9.48937,0 0,2.667274 0,2.66729 -9.48937,0 -9.48936,0 z" />
    <path
       sodipodi:nodetypes="ccccccccc"
       inkscape:connector-curvature="0" 
       class="a_pier"
       d="m 120.07745,88.275926 0,-9.74585 4.77032,0 4.77034,0 0,9.74585 0,9.74583 -4.77034,0 -4.77032,0 z" />
    <path
       sodipodi:nodetypes="ccscccccccccccccccccccccccccc"
       inkscape:connector-curvature="0" 
       class="a_pierhead"
       d="m 116.48076,75.783321 c -2.00304,-1.04923 -3.67543,-1.9383 -3.71644,-1.97567 -0.0411,-0.0375 -0.213,-1.24394 -0.38217,-2.68121 -0.16918,-1.43728 -0.33466,-2.80944 -0.36772,-3.04923 l -0.0601,-0.436 0.51922,0 0.51922,0 0,-1.33364 0,-1.33364 1.94917,0 1.94917,0 0,1.33364 0,1.33364 1.07717,0 1.07717,0 0,-1.33364 0,-1.33364 1.94916,0 1.94917,0 0,1.33364 0,1.33364 3.3341,0 3.3341,0 0,5.02681 0,5.02679 -4.74467,-9.1e-4 -4.74469,-9.1e-4 -3.64187,-1.90769 z" />
  </g>
</svg>
