<?xml version="1.0" encoding="UTF-8" standalone="no"?>
<!-- Created with Inkscape (http://www.inkscape.org/) -->

<svg
   xmlns:dc="http://purl.org/dc/elements/1.1/"
   xmlns:cc="http://creativecommons.org/ns#"
   xmlns:rdf="http://www.w3.org/1999/02/22-rdf-syntax-ns#"
   xmlns:svg="http://www.w3.org/2000/svg"
   xmlns="http://www.w3.org/2000/svg"
   xmlns:sodipodi="http://sodipodi.sourceforge.net/DTD/sodipodi-0.dtd"
   xmlns:inkscape="http://www.inkscape.org/namespaces/inkscape"
   viewBox="0 0 150 86"
   id="svg4256"
   version="1.1"
   inkscape:version="0.91 r13725"
   sodipodi:docname="pier_a2b2c2d7.svg"
   width="150"
   height="86">
  <defs
     id="defs4258" />
  <sodipodi:namedview
     id="base"
     pagecolor=""
     bordercolor="#666666"
     borderopacity="1.0"
     inkscape:pageopacity="0.0"
     inkscape:pageshadow="2"
     inkscape:document-units="mm"
     inkscape:current-layer="g4193"
     showgrid="false"
     units="mm"
     inkscape:window-width="1920"
     inkscape:window-height="1017"
     inkscape:window-x="-8"
     inkscape:window-y="-8"
     inkscape:window-maximized="1"
     inkscape:zoom="7.9999999"
     inkscape:cx="87.86511"
     inkscape:cy="49.49546" />
  <metadata
     id="metadata4261">
    <rdf:RDF>
      <cc:Work
         rdf:about="">
        <dc:format>image/svg+xml</dc:format>
        <dc:type
           rdf:resource="http://purl.org/dc/dcmitype/StillImage" />
        <dc:title />
      </cc:Work>
    </rdf:RDF>
  </metadata>
  <g
     transform="translate(0,-64)"
     style="display:inline"
     inkscape:label="p1"
     id="g4193"
     inkscape:groupmode="layer">
    <path
       sodipodi:nodetypes="cccccccccccccccccc"
       inkscape:connector-curvature="0"
       class="a_pile"
       d="m 99.215138,143.56788 0,-5.53975 1.846572,0 1.84658,0 0,5.53975 0,5.53975 -1.84658,0 -1.846572,0 z m 15.285572,0 0,-5.53975 1.84658,0 1.84658,0 0,5.53975 0,5.53975 -1.84658,0 -1.84658,0 z"
       id="path7" />
    <path
       sodipodi:nodetypes="cccccccccccccccccc"
       inkscape:connector-curvature="0"
       class="b_pile"
       d="m 122.38744,120.58842 0,-5.53974 1.84659,0 1.84657,0 0,5.53974 0,5.53974 -1.84657,0 -1.84659,0 z m 15.28558,0 0,-5.53974 1.84657,0 1.84658,0 0,5.53974 0,5.53974 -1.84658,0 -1.84657,0 z"
       id="path9" />
    <path
       sodipodi:nodetypes="ccccccccc"
       inkscape:connector-curvature="0"
       class="a_pilecap"
       d="m 99.212598,134.64516 0,-2.66728 9.489372,0 9.48936,0 0,2.66728 0,2.66727 -9.48936,0 -9.489372,0 z"
       id="path11" />
    <path
       sodipodi:nodetypes="ccccccccc"
       inkscape:connector-curvature="0"
       class="b_pilecap"
       d="m 122.37771,111.65089 0,-2.66728 9.48937,0 9.48936,0 0,2.66728 0,2.6673 -9.48936,0 -9.48937,0 z"
       id="path13" />
    <path
       sodipodi:nodetypes="ccccccccc"
       inkscape:connector-curvature="0"
       class="a_pier"
       d="m 103.91761,121.40196 0,-9.74585 4.77034,0 4.77033,0 0,9.74585 0,9.74584 -4.77033,0 -4.77034,0 z"
       id="path15" />
    <path
       sodipodi:nodetypes="ccccccccc"
       inkscape:connector-curvature="0"
       class="b_pier"
       d="m 127.12182,103.22606 0,-4.950264 4.77032,-4.76951 4.77033,-4.7695 0,9.71977 0,9.719784 -4.77033,0 -4.77032,0 z"
       id="path17" />
    <path
       sodipodi:nodetypes="cccccccccccccccccccccccccccccccccsscccccscccccccsccccccccccccccccccccccsscccc"
       inkscape:connector-curvature="0"
       class="c_pierhead"
       d="m 103.92156,106.07189 0,-4.97551 4.75741,0 4.75741,0 11.60533,-11.647489 11.60534,-11.6475 0,5.05641 0,5.05638 -11.56694,11.56662 -11.56694,11.566589 -4.79581,0 -4.7958,0 z m -1.19053,-10.823009 -1.23743,-5.02679 1.11139,0 1.1114,0 0,-1.33365 0,-1.33364 1.94917,0 1.94916,0 0,1.33364 0,1.33365 1.07718,0 1.07717,0 0,-1.33365 0,-1.33364 1.94917,0 1.94916,0 0,1.33364 0,1.33365 1.11652,0 1.11653,0 -0.54215,2.17998 c -0.29819,1.19899 -0.8535,3.46107 -1.23405,5.0268 l -0.69192,2.846819 -4.73192,0 -4.73193,0 z m 11.50351,4.00091 c 0.0398,-0.19746 0.52806,-2.27489 1.08496,-4.61645 0.55688,-2.34156 1.0365,-4.35894 1.06581,-4.48306 0.0494,-0.20916 0.0118,-0.22794 -0.51277,-0.25648 l -0.56605,-0.0307 6.02965,-6.02818 6.02965,-6.02815 4.28179,0.0268 4.2818,0.0268 -10.88363,10.87429 c -9.4241,9.416 -10.87392,10.82614 -10.81121,10.51523 z m 11.68132,-27.18577 -1.23743,-5.0268 1.1114,0 1.11139,0 0,-1.33365 0,-1.33363 1.94916,0 1.94917,0 0,1.33363 0,1.33365 1.07717,0 1.07717,0 0,-1.33365 0,-1.33363 1.94917,0 1.94916,0 0,1.33363 0,1.33365 1.11653,0 1.11653,0 -0.54214,2.17999 c -0.29819,1.19901 -0.85351,3.46104 -1.23406,5.0268 l -0.69191,2.84681 -4.73194,0 -4.73192,0 z"
       id="path19" />
  </g>
</svg>
