<?xml version="1.0" encoding="UTF-8" standalone="no"?>
<!-- Created with Inkscape (http://www.inkscape.org/) -->

<svg
   xmlns:dc="http://purl.org/dc/elements/1.1/"
   xmlns:cc="http://creativecommons.org/ns#"
   xmlns:rdf="http://www.w3.org/1999/02/22-rdf-syntax-ns#"
   xmlns:svg="http://www.w3.org/2000/svg"
   xmlns="http://www.w3.org/2000/svg"
   xmlns:sodipodi="http://sodipodi.sourceforge.net/DTD/sodipodi-0.dtd"
   xmlns:inkscape="http://www.inkscape.org/namespaces/inkscape"
   viewBox="0 0 150 86"
   id="svg4256"
   version="1.1"
   inkscape:version="0.91 r13725"
   sodipodi:docname="pier_a2b2c2d6.svg"
   width="150"
   height="86">
  <defs
     id="defs4258" />
  <sodipodi:namedview
     id="base"
     pagecolor=""
     bordercolor="#666666"
     borderopacity="1.0"
     inkscape:pageopacity="0.0"
     inkscape:pageshadow="2"
     inkscape:document-units="mm"
     inkscape:current-layer="g4193"
     showgrid="false"
     units="mm"
     inkscape:window-width="1920"
     inkscape:window-height="1017"
     inkscape:window-x="-8"
     inkscape:window-y="-8"
     inkscape:window-maximized="1"
     inkscape:zoom="7.9999999"
     inkscape:cx="104.94135"
     inkscape:cy="61.978018" />
  <metadata
     id="metadata4261">
    <rdf:RDF>
      <cc:Work
         rdf:about="">
        <dc:format>image/svg+xml</dc:format>
        <dc:type
           rdf:resource="http://purl.org/dc/dcmitype/StillImage" />
        <dc:title />
      </cc:Work>
    </rdf:RDF>
  </metadata>
  <g
     transform="translate(0,-64)"
     style="display:inline"
     inkscape:label="p1"
     id="g4193"
     inkscape:groupmode="layer">
    <path
       sodipodi:nodetypes="cccccccccccccccccc"
       inkscape:connector-curvature="0"
       class="a_pile"
       d="m 99.215138,130.31788 0,-5.53975 1.846572,0 1.84658,0 0,5.53975 0,5.53975 -1.84658,0 -1.846572,0 z m 15.285572,0 0,-5.53975 1.84658,0 1.84658,0 0,5.53975 0,5.53975 -1.84658,0 -1.84658,0 z"
       id="path7" />
    <path
       sodipodi:nodetypes="cccccccccccccccccc"
       inkscape:connector-curvature="0"
       class="b_pile"
       d="m 122.38744,107.33842 0,-5.53974 1.84659,0 1.84657,0 0,5.53974 0,5.53974 -1.84657,0 -1.84659,0 z m 15.28558,0 0,-5.53974 1.84657,0 1.84658,0 0,5.53974 0,5.53974 -1.84658,0 -1.84657,0 z"
       id="path9" />
    <path
       sodipodi:nodetypes="ccccccccc"
       inkscape:connector-curvature="0"
       class="a_pilecap"
       d="m 99.212598,121.39516 0,-2.66728 9.489372,0 9.48936,0 0,2.66728 0,2.66727 -9.48936,0 -9.489372,0 z"
       id="path11" />
    <path
       sodipodi:nodetypes="ccccccccc"
       inkscape:connector-curvature="0"
       class="b_pilecap"
       d="m 122.37771,98.400894 0,-2.66728 9.48937,0 9.48936,0 0,2.66728 0,2.667296 -9.48936,0 -9.48937,0 z"
       id="path13" />
    <path
       sodipodi:nodetypes="ccccccccc"
       inkscape:connector-curvature="0"
       class="a_pier"
       d="m 103.91761,108.15196 0,-9.745846 4.77034,0 4.77033,0 0,9.745846 0,9.74584 -4.77033,0 -4.77034,0 z"
       id="path15" />
    <path
       sodipodi:nodetypes="ccccccccc"
       inkscape:connector-curvature="0"
       class="b_pier"
       d="m 127.12182,89.976064 0,-4.950268 4.77032,-4.76951 4.77033,-4.7695 0,9.71977 0,9.719788 -4.77033,0 -4.77032,0 z"
       id="path17" />
    <path
       sodipodi:nodetypes="cccccccccccccccccccccc"
       inkscape:connector-curvature="0"
       class="c_pierhead"
       d="m 103.92616,92.820694 0,-4.9755 4.75741,0 4.75741,0 11.60533,-11.647507 11.60534,-11.64748 0,5.0564 0,5.05639 -11.56694,11.56661 -11.56694,11.566587 -4.79581,0 -4.7958,0 z m 12.05407,-16.875687 11.38688,-11.38724 4.30869,0 4.30868,0 -11.38688,11.38724 -11.3869,11.387257 -4.30869,0 -4.30868,0 z"
       id="path19" />
  </g>
</svg>
