<?xml version="1.0" encoding="UTF-8" standalone="no"?>
<!-- Created with Inkscape (http://www.inkscape.org/) -->

<svg
   xmlns:dc="http://purl.org/dc/elements/1.1/"
   xmlns:cc="http://creativecommons.org/ns#"
   xmlns:rdf="http://www.w3.org/1999/02/22-rdf-syntax-ns#"
   xmlns:svg="http://www.w3.org/2000/svg"
   xmlns="http://www.w3.org/2000/svg"
   xmlns:sodipodi="http://sodipodi.sourceforge.net/DTD/sodipodi-0.dtd"
   xmlns:inkscape="http://www.inkscape.org/namespaces/inkscape"
   viewBox="0 0 150 86"
   id="svg4256"
   version="1.1"
   inkscape:version="0.91 r13725"
   sodipodi:docname="pier_a2b1c1d1.svg"
   width="150"
   height="86">
  <defs
     id="defs4258" />
  <sodipodi:namedview
     id="base"
     pagecolor=""
     bordercolor="#666666"
     borderopacity="1.0"
     inkscape:pageopacity="0.0"
     inkscape:pageshadow="2"
     inkscape:document-units="mm"
     inkscape:current-layer="g4193"
     showgrid="false"
     units="mm"
     inkscape:window-width="1920"
     inkscape:window-height="1017"
     inkscape:window-x="-8"
     inkscape:window-y="-8"
     inkscape:window-maximized="1"
     inkscape:zoom="4"
     inkscape:cx="28.93539"
     inkscape:cy="55.972349" />
  <metadata
     id="metadata4261">
    <rdf:RDF>
      <cc:Work
         rdf:about="">
        <dc:format>image/svg+xml</dc:format>
        <dc:type
           rdf:resource="http://purl.org/dc/dcmitype/StillImage" />
        <dc:title />
      </cc:Work>
    </rdf:RDF>
  </metadata>
  <g
     transform="translate(0,-64)"
     style="display:inline"
     inkscape:label="p1"
     id="g4193"
     inkscape:groupmode="layer">
    <path
       sodipodi:nodetypes="cccccccccccccccccc"
       inkscape:connector-curvature="0"
       class="a_pile"
       d="m 108.19813,110.40624 0,-5.53973 1.84658,0 1.84658,0 0,5.53973 0,5.53974 -1.84658,0 -1.84658,0 z m 15.28557,0 0,-5.53973 1.84658,0 1.84658,0 0,5.53973 0,5.53974 -1.84658,0 -1.84658,0 z" />
    <path
       sodipodi:nodetypes="ccccccccc"
       inkscape:connector-curvature="0"
       class="a_pilecap"
       d="m 108.19804,101.50753 0,-2.667274 9.48936,0 9.48937,0 0,2.667274 0,2.66729 -9.48937,0 -9.48936,0 z"/>
    <path
       sodipodi:nodetypes="ccccccccc"
       inkscape:connector-curvature="0"
       class="a_pier"
       d="m 112.91752,88.275926 0,-9.74585 4.77032,0 4.77034,0 0,9.74585 0,9.74583 -4.77034,0 -4.77032,0 z"/>
    <path
       sodipodi:nodetypes="ccccccccccccccccccccsscccc"
       inkscape:connector-curvature="0"
       class="a_pierhead"
       d="m 111.73272,72.680093 -1.23742,-5.026806 1.11138,0 1.11139,0 0,-1.333635 0,-1.333648 1.94917,0 1.94917,0 0,1.333648 0,1.333635 1.07716,0 1.07718,0 0,-1.333635 0,-1.333648 1.94916,0 1.94917,0 0,1.333648 0,1.333635 1.11653,0 1.11653,0 -0.54216,2.179993 c -0.29817,1.19899 -0.8535,3.461057 -1.23405,5.026808 l -0.6919,2.846808 -4.73194,0 -4.73192,0 z"/>
    
  </g>
</svg>
