<?xml version="1.0" encoding="UTF-8" standalone="no"?>
<!-- Created with Inkscape (http://www.inkscape.org/) -->

<svg
   xmlns:dc="http://purl.org/dc/elements/1.1/"
   xmlns:cc="http://creativecommons.org/ns#"
   xmlns:rdf="http://www.w3.org/1999/02/22-rdf-syntax-ns#"
   xmlns:svg="http://www.w3.org/2000/svg"
   xmlns="http://www.w3.org/2000/svg"
   xmlns:sodipodi="http://sodipodi.sourceforge.net/DTD/sodipodi-0.dtd"
   xmlns:inkscape="http://www.inkscape.org/namespaces/inkscape"
   viewBox="0 0 150 86"
   id="svg4256"
   version="1.1"
   inkscape:version="0.91 r13725"
   sodipodi:docname="pier_a2b1c1d4.svg"
   width="150"
   height="86">
  <defs
     id="defs4258" />
  <sodipodi:namedview
     id="base"
     pagecolor=""
     bordercolor="#666666"
     borderopacity="1.0"
     inkscape:pageopacity="0.0"
     inkscape:pageshadow="2"
     inkscape:document-units="mm"
     inkscape:current-layer="g4193"
     showgrid="false"
     units="mm"
     inkscape:window-width="1920"
     inkscape:window-height="1017"
     inkscape:window-x="-8"
     inkscape:window-y="-8"
     inkscape:window-maximized="1"
     inkscape:zoom="5.6568542"
     inkscape:cx="44.461521"
     inkscape:cy="63.537852" />
  <metadata
     id="metadata4261">
    <rdf:RDF>
      <cc:Work
         rdf:about="">
        <dc:format>image/svg+xml</dc:format>
        <dc:type
           rdf:resource="http://purl.org/dc/dcmitype/StillImage" />
        <dc:title />
      </cc:Work>
    </rdf:RDF>
  </metadata>
  <g
     transform="translate(0,-64)"
     style="display:inline"
     inkscape:label="p1"
     id="g4193"
     inkscape:groupmode="layer">
    <path
       sodipodi:nodetypes="cccccccccccccccccc"
       inkscape:connector-curvature="0"
       class="a_pile"
       d="m 108.52724,119.42656 0,-5.53973 1.84657,0 1.84659,0 0,5.53973 0,5.53974 -1.84659,0 -1.84657,0 z m 15.28556,0 0,-5.53973 1.84658,0 1.84659,0 0,5.53973 0,5.53974 -1.84659,0 -1.84658,0 z"
       id="path7" />
    <path
       sodipodi:nodetypes="ccccccccc"
       inkscape:connector-curvature="0"
       class="a_pilecap"
       d="m 108.51268,110.52314 0,-2.66727 9.48936,0 9.48937,0 0,2.66727 0,2.66729 -9.48937,0 -9.48936,0 z"
       id="path9" />
    <path
       inkscape:connector-curvature="0"
       sodipodi:nodetypes="ccccccccc"
       class="a_pier"
       d="m 113.2292,102.0865 0,-4.95029 4.77033,-4.7695 4.77032,-4.7695 0,9.71977 0,9.71979 -4.77032,0 -4.77033,0 z"
       id="path11" />
    <path
       sodipodi:nodetypes="cccccccccccccccccccccc"
       inkscape:connector-curvature="0"
       class="a_pierhead"
       d="m 101.69291,92.824685 0,-4.97551 4.75742,0 4.75741,0 11.60533,-11.64749 11.60534,-11.6475 0,5.05641 0,5.05638 -11.56694,11.56662 -11.56693,11.56659 -4.79581,0 -4.79582,0 z m 12.05408,-16.8757 11.38688,-11.38725 4.30869,0 4.30868,0 -11.38689,11.38725 -11.38689,11.38724 -4.30869,0 -4.30869,0 z"
       id="path13" />
  </g>
</svg>
