<?xml version="1.0" encoding="UTF-8" standalone="no"?>
<!-- Created with Inkscape (http://www.inkscape.org/) -->

<svg
   xmlns:dc="http://purl.org/dc/elements/1.1/"
   xmlns:cc="http://creativecommons.org/ns#"
   xmlns:rdf="http://www.w3.org/1999/02/22-rdf-syntax-ns#"
   xmlns:svg="http://www.w3.org/2000/svg"
   xmlns="http://www.w3.org/2000/svg"
   xmlns:sodipodi="http://sodipodi.sourceforge.net/DTD/sodipodi-0.dtd"
   xmlns:inkscape="http://www.inkscape.org/namespaces/inkscape"
   viewBox="0 0 150 86"
   id="svg4256"
   version="1.1"
   inkscape:version="0.91 r13725"
   sodipodi:docname="pier_a2b1c1d1.svg"
   width="150"
   height="86">
  <defs
     id="defs4258" />
  <sodipodi:namedview
     id="base"
     pagecolor=""
     bordercolor="#666666"
     borderopacity="1.0"
     inkscape:pageopacity="0.0"
     inkscape:pageshadow="2"
     inkscape:document-units="mm"
     inkscape:current-layer="g4193"
     showgrid="false"
     units="mm"
     inkscape:window-width="1920"
     inkscape:window-height="1017"
     inkscape:window-x="-8"
     inkscape:window-y="-8"
     inkscape:window-maximized="1"
     inkscape:zoom="4"
     inkscape:cx="65.81039"
     inkscape:cy="55.972349" />
  <metadata
     id="metadata4261">
    <rdf:RDF>
      <cc:Work
         rdf:about="">
        <dc:format>image/svg+xml</dc:format>
        <dc:type
           rdf:resource="http://purl.org/dc/dcmitype/StillImage" />
        <dc:title />
      </cc:Work>
    </rdf:RDF>
  </metadata>
  <g
     inkscape:label="temp"
     inkscape:groupmode="layer"
     id="layer1"
     transform="translate(0,-966.36206)"
     style="display:none"
     sodipodi:insensitive="true">
    <path
       style="fill:none;fill-rule:evenodd;stroke:#000000;stroke-width:1px;stroke-linecap:butt;stroke-linejoin:miter;stroke-opacity:1"
       d="m 1.0366403,983.0019 0,6.3559 115.6779697,0 0,-6.3559 z"
       id="path4160"
       inkscape:connector-curvature="0" />
    <path
       style="fill:none;fill-rule:evenodd;stroke:#000000;stroke-width:0.6388213px;stroke-linecap:butt;stroke-linejoin:miter;stroke-opacity:1"
       d="m 0.85605028,979.0078 0,2.5857 116.03914972,0 0,-2.5857 z"
       id="path4162"
       inkscape:connector-curvature="0" />
  </g>
  <g
     inkscape:groupmode="layer"
     id="layer2"
     inkscape:label="pier template"
     style="display:none"
     transform="translate(0,-64)"
     sodipodi:insensitive="true">
    <path
       style="fill:#000000"
       d=""
       id="path4163"
       inkscape:connector-curvature="0" />
    <path
       style="fill:#000000"
       d=""
       id="path4161"
       inkscape:connector-curvature="0" />
    <path
       style="opacity:0.09774439;fill:#000000"
       d="m 39.408695,144.16674 0,-5.53974 1.846578,0 1.84658,0 0,5.53974 0,5.53975 -1.84658,0 -1.846578,0 z m 15.285574,0 0,-5.53974 1.846579,0 1.84658,0 0,5.53974 0,5.53975 -1.84658,0 -1.846579,0 z m 52.935291,0 0,-5.53974 1.84656,0 1.8466,0 0,5.53974 0,5.53975 -1.8466,0 -1.84656,0 z m 15.28554,0 0,-5.53974 1.8466,0 1.84658,0 0,5.53974 0,5.53975 -1.84658,0 -1.8466,0 z m -144.443527,-4.92421 0,-5.53974 1.846577,0 1.84658,0 0,5.53974 0,5.53974 -1.84658,0 -1.846577,0 z m 15.2855698,0 0,-5.53974 1.84658,0 1.8465813,0 0,5.53974 0,5.53974 -1.8465813,0 -1.84658,0 z m 45.6515522,-4.00092 0,-2.66728 9.489369,0 9.489364,0 0,2.66728 0,2.66727 -9.489364,0 -9.489369,0 z m 68.220865,0 0,-2.66728 9.48934,0 9.48938,0 0,2.66728 0,2.66727 -9.48938,0 -9.48934,0 z m -129.157987,-4.92421 0,-2.66729 9.489369,0 9.4893621,0 0,2.66729 0,2.66727 -9.4893621,0 -9.489369,0 z m 65.656155,-8.30962 0,-9.74583 4.770336,0 4.770332,0 0,9.74583 0,9.74585 -4.770332,0 -4.770336,0 z m 68.220842,0 0,-9.74583 4.77033,0 4.77034,0 0,9.74583 0,9.74585 -4.77034,0 -4.77033,0 z m -129.157957,-0.1286 0,-4.95027 4.770329,-4.76951 4.7703288,-4.7695 0,9.71977 0,9.71978 -4.7703288,0 -4.770329,0 z m 79.40291,-0.69207 0,-5.53974 1.846581,0 1.846578,0 0,5.53974 0,5.53974 -1.846578,0 -1.846581,0 z m 15.285571,0 0,-5.53974 1.846575,0 1.846582,0 0,5.53974 0,5.53974 -1.846582,0 -1.846575,0 z m 52.935286,0 0,-5.53974 1.84657,0 1.84657,0 0,5.53974 0,5.53974 -1.84657,0 -1.84657,0 z m 15.28558,0 0,-5.53974 1.84656,0 1.84658,0 0,5.53974 0,5.53974 -1.84658,0 -1.84656,0 z m -177.68198,-5.28326 0,-4.9755 4.757401,0 4.757412,0 11.605329,-11.647497 11.6053384,-11.647482 0,5.056395 0,5.056394 -11.5669334,11.5666 -11.566937,11.56659 -4.795812,0 -4.795798,0 z m 94.175543,-3.64187 0,-2.66728 9.489369,0 9.489359,0 0,2.66728 0,2.66729 -9.489359,0 -9.489369,0 z m 68.220857,0 0,-2.66728 9.48936,0 9.48936,0 0,2.66728 0,2.66729 -9.48936,0 -9.48936,0 z m -86.686652,-5.59103 0,-4.9755 4.757411,0 4.757414,0 11.605329,-11.647492 11.605336,-11.647481 0,5.056395 0,5.056393 -11.566941,11.566605 -11.566934,11.56658 -4.795818,0 -4.795797,0 z m 68.220842,0 0,-4.9755 4.75741,0 4.75741,0 11.60534,-11.647492 11.60533,-11.647481 0,5.056395 0,5.056393 -11.56694,11.566605 -11.56693,11.56658 -4.79579,0 -4.79583,0 z m -145.121115,-1.59011 -1.237436,-5.02679 1.111389,0 1.111393,0 0,-1.333646 0,-1.333634 1.949167,0 1.949169,0 0,1.333634 0,1.333646 1.077169,0 1.07717,0 0,-1.333646 0,-1.333634 1.949168,0 1.94917,0 0,1.333634 0,1.333646 1.116517,0 1.116527,0 -0.542145,2.17998 c -0.298183,1.19899 -0.853495,3.46106 -1.234046,5.02681 l -0.691917,2.84679 -4.731932,0 -4.731915,0 z m 11.503504,4.00092 c 0.03983,-0.19748 0.528058,-2.27488 1.084951,-4.61645 0.556892,-2.34156 1.03651,-4.35894 1.065823,-4.483065 0.04936,-0.209148 0.01182,-0.227942 -0.512782,-0.256476 l -0.566045,-0.03073 6.029652,-6.028178 6.0296544,-6.028162 4.2817831,0.02676 4.28179256,0.02675 -10.88362106,10.874285 c -9.424102,9.416036 -10.873918,10.826156 -10.811208,10.515236 z m 88.581606,-5.25803 0,-4.950269 4.770327,-4.769503 4.770326,-4.769505 0,9.719773 0,9.719784 -4.770326,0 -4.770327,0 z m 68.220855,0 0,-4.950269 4.77032,-4.769503 4.77032,-4.769505 0,9.719773 0,9.719784 -4.77032,0 -4.77032,0 z M 56.181796,89.795275 67.568683,78.408029 l 4.308684,0 4.308683,0 -11.386885,11.387246 -11.386896,11.387245 -4.308688,0 -4.308686,0 z m 54.976284,6.052674 -1.23745,-5.026788 1.11139,0 1.11139,0 0,-1.333651 0,-1.333635 1.94916,0 1.94916,0 0,1.333635 0,1.333651 1.07717,0 1.07719,0 0,-1.333651 0,-1.333635 1.94916,0 1.94918,0 0,1.333635 0,1.333651 1.1165,0 1.11653,0 -0.54215,2.179977 c -0.29818,1.19899 -0.85348,3.461057 -1.23404,5.026806 l -0.6919,2.846796 -4.73194,0 -4.73192,0 z m 11.50349,4.00092 c 0.0397,-0.19748 0.52805,-2.27488 1.08496,-4.61645 0.55688,-2.341566 1.03649,-4.358947 1.0658,-4.483069 0.0495,-0.209149 0.0126,-0.227942 -0.51277,-0.256477 l -0.56606,-0.03073 6.02968,-6.028176 6.02962,-6.028164 4.28182,0.02676 4.28178,0.02676 -10.88363,10.874293 c -9.42412,9.416036 -10.87391,10.826164 -10.8112,10.515253 z M -9.5877176,81.896013 l -1.2374284,-5.026805 1.1113824,0 1.1113909,0 0,-1.333634 0,-1.333636 1.9491674,0 1.9491693,0 0,1.333636 0,1.333634 1.0771702,0 1.0771699,0 0,-1.333634 0,-1.333636 1.94916606,0 1.94916994,0 0,1.333636 0,1.333634 1.1165266,0 1.1165182,0 -0.5421464,2.179995 c -0.2981812,1.199005 -0.8534959,3.46107 -1.2340436,5.026804 l -0.691918,2.846811 -4.7319241,0 -4.7319251,0 z M 134.3429,72.663117 l -1.23745,-5.02679 1.11138,0 1.11141,0 0,-1.333649 0,-1.333635 1.94916,0 1.94917,0 0,1.333635 0,1.333649 1.07717,0 1.07716,0 0,-1.333649 0,-1.333635 1.94918,0 1.94916,0 0,1.333635 0,1.333649 1.11653,0 1.11651,0 -0.54214,2.179994 c -0.29819,1.198989 -0.85349,3.461056 -1.23404,5.02679 l -0.69191,2.846813 -4.73193,0 -4.73193,0 z m -82.828851,-13.849342 0,-5.53974 1.846577,0 1.846581,0 0,5.53974 0,5.53974 -1.846581,0 -1.846577,0 z m 15.28557,0 0,-5.53974 1.846577,0 1.846581,0 0,5.53974 0,5.53974 -1.846581,0 -1.846577,0 z m -97.868702,-0.307764 0,-5.53974 1.84658,0 1.846579,0 0,5.53974 0,5.539739 -1.846579,0 -1.84658,0 z m 15.285572,0 0,-5.53974 1.846579,0 1.846578,0 0,5.53974 0,5.539739 -1.846578,0 -1.846579,0 z m 22.6718863,0 0,-5.53974 1.84658,0 1.8465787,0 0,5.53974 0,5.539739 -1.8465787,0 -1.84658,0 z m 15.2855797,0 0,-5.53974 1.84658,0 1.846577,0 0,5.53974 0,5.539739 -1.846577,0 -1.84658,0 z m 29.340094,-8.617368 0,-2.667283 9.48937,0 9.489358,0 0,2.667283 0,2.667286 -9.489358,0 -9.48937,0 z m -82.583132,-0.307763 0,-2.667283 9.48936,0 9.489369,0 0,2.667283 0,2.667284 -9.489369,0 -9.48936,0 z m 37.9574583,0 0,-2.667283 9.4893687,0 9.489368,0 0,2.667283 0,2.667284 -9.489368,0 -9.4893687,0 z m 49.3447137,-12.926048 0,-9.745831 4.77033,0 4.770326,0 0,9.745831 0,9.745828 -4.770326,0 -4.77033,0 z m -82.583138,-0.307765 0,-9.745846 4.770326,0 4.770336,0 0,9.745846 0,9.745831 -4.770336,0 -4.770326,0 z m 37.957458,0 0,-9.745846 4.770335,0 4.770328,0 0,9.745846 0,9.745831 -4.770328,0 -4.770335,0 z m 44.611672,-10.30698 c -0.02862,-0.0286 -2.51858,-0.893672 -5.533157,-1.922251 l -5.481019,-1.870133 -1.527909,-0.05444 -1.527898,-0.05444 -0.754662,-2.143569 -0.754672,-2.143584 0.569803,-1.062281 0.569816,-1.062311 1.738406,0 1.738411,0 0,-1.333633 0,-1.33365 1.949159,0 1.949169,0 0,1.33365 0,1.333633 1.077167,0 1.077183,0 0,-1.333633 0,-1.33365 1.949168,0 1.949161,0 0,1.33365 0,1.333633 5.796212,0 5.7962,0 0,-1.333633 0,-1.33365 1.949169,0 1.949167,0 0,1.33365 0,1.333633 1.07717,0 1.077177,0 0,-1.333633 0,-1.33365 1.949159,0 1.949168,0 0,1.33365 0,1.333633 1.738413,0 1.738399,0 0.569815,1.062311 0.5698,1.062281 -0.754657,2.143584 -0.754668,2.143569 -1.527907,0.05444 -1.527898,0.05444 -5.488445,1.894647 -5.488444,1.894648 -4.776927,0.02752 c -2.627303,0.0153 -4.800368,0.0046 -4.829029,-0.02462 z m -83.759654,-5.286353 -1.237429,-5.026806 1.111383,0 1.11139,0 0,-1.333635 0,-1.333648 1.949168,0 1.94917,0 0,1.333648 0,1.333635 1.077168,0 1.077179,0 0,-1.333635 0,-1.333648 1.949159,0 1.94917,0 0,1.333648 0,1.333635 1.116526,0 1.116528,0 -0.542156,2.179993 c -0.298173,1.19899 -0.853496,3.461057 -1.234046,5.026808 l -0.691908,2.846808 -4.731933,0 -4.731923,0 z m 35.5574133,3.11529 C 6.0138183,22.819801 4.3414228,21.930748 4.3004068,21.893359 4.2593698,21.855909 4.0874126,20.649427 3.9182361,19.21216 3.7490492,17.774876 3.5835851,16.402737 3.5505229,16.16293 l -0.060111,-0.436002 0.5192187,0 0.5192258,0 0,-1.333635 0,-1.333648 1.9491671,0 1.94917,0 0,1.333648 0,1.333635 1.077168,0 1.0771715,0 0,-1.333635 0,-1.333648 1.949166,0 1.949169,0 0,1.333648 0,1.333635 3.334105,0 3.334096,0 0,5.026806 0,5.026803 -4.744684,-0.0014 -4.744685,-0.0014 -3.6418635,-1.907691 z M -128.63001,7.9302598 l 0,-9.74583 4.77033,0 4.77031,0 0,9.74583 0,9.7458462 -4.77031,0 -4.77033,0 z m 25.64693,4.7955772 0,-4.9502852 4.770333,-4.769503 4.770322,-4.769503 0,9.719772 0,9.7197882 -4.770322,0 -4.770333,0 z m -23.59519,-44.291844 0,-2.667287 9.48936,0 9.48939,0 0,2.667287 0,2.667283 -9.48939,0 -9.48936,0 z m 4.82163,-32.82808 0,-5.53973 3.38539,0 3.3854,0 0,5.53973 0,5.53974 -3.3854,0 -3.38539,0 z m 30.160798,0 0,-5.53973 1.846572,0 1.846583,0 0,5.53973 0,5.53974 -1.846583,0 -1.846572,0 z m 15.285564,0 0,-5.53973 1.84658,0 1.846581,0 0,5.53973 0,5.53974 -1.846581,0 -1.84658,0 z m 25.031414,0 0,-5.53973 1.846578,0 1.846581,0 0,5.53973 0,5.53974 -1.846581,0 -1.846578,0 z m 7.694074,0 0,-5.53973 1.84658,0 1.84658,0 0,5.53973 0,5.53974 -1.84658,0 -1.84658,0 z m 7.591496,0 0,-5.53973 1.846579,0 1.846579,0 0,5.53973 0,5.53974 -1.846579,0 -1.846579,0 z m 21.748594,0 0,-5.53973 1.846579,0 1.846579,0 0,5.53973 0,5.53974 -1.846579,0 -1.846579,0 z m 5.2319803,0 0,-5.53973 1.8465789,0 1.8465778,0 0,5.53973 0,5.53974 -1.8465778,0 -1.8465789,0 z m 5.1293884,0 0,-5.53973 1.8465807,0 1.84657826,0 0,5.53973 0,5.53974 -1.84657826,0 -1.8465807,0 z m 4.9242114,0 0,-5.53973 1.8465786,0 1.8465807,0 0,5.53973 0,5.53974 -1.8465807,0 -1.8465786,0 z m 25.4417599,0 0,-5.53973 1.846581,0 1.846577,0 0,5.53973 0,5.53974 -1.846577,0 -1.846581,0 z m 5.231969,0 0,-5.53973 1.846589,0 1.846579,0 0,5.53973 0,5.53974 -1.846579,0 -1.846589,0 z m -36.0082968,-36.982873 0,-4.97551 4.75740316,0 4.75741714,0 11.6053305,-11.64749 11.605337,-11.6475 0,5.05641 0,5.05638 -11.566944,11.56662 -11.5669234,11.566593 -4.79581424,0 -4.79580616,0 z m 52.1145718,0 0,-4.97551 4.757414,0 4.757412,0 11.60533,-11.64749 11.605341,-11.6475 0,5.05641 0,5.05638 -11.566947,11.56662 -11.566933,11.566593 -4.795814,0 -4.795803,0 z m -40.0605087,-16.8757 11.3868887,-11.38725 4.308683,0 4.308685,0 -11.386888,11.38725 -11.3868949,11.38724 -4.30868424,0 -4.30868386,0 z m 38.8699867,6.05269 -1.237429,-5.02679 1.111384,0 1.111399,0 0,-1.33365 0,-1.33364 1.949169,0 1.949164,0 0,1.33364 0,1.33365 1.077176,0 1.077171,0 0,-1.33365 0,-1.33364 1.949168,0 1.949166,0 0,1.33364 0,1.33365 1.116521,0 1.116528,0 -0.542148,2.17998 c -0.298189,1.19899 -0.853505,3.46107 -1.234056,5.0268 l -0.691916,2.84682 -4.731923,0 -4.731925,0 z m 11.503508,4.00091 c 0.03983,-0.19746 0.528057,-2.27489 1.084956,-4.61645 0.556886,-2.34156 1.036503,-4.35894 1.065817,-4.48306 0.04936,-0.20916 0.01182,-0.22794 -0.512773,-0.25648 l -0.566054,-0.0307 6.029651,-6.02818 6.029654,-6.02815 4.281791,0.0268 4.281793,0.0268 -10.883631,10.87429 c -9.424091,9.416 -10.873915,10.82614 -10.811204,10.51523 z m -103.784417,-3.53622 c -0.02862,-0.0286 -2.518579,-0.89366 -5.533145,-1.92225 l -5.481034,-1.87012 -1.527899,-0.0546 -1.527899,-0.0544 -0.754671,-2.14359 -0.754664,-2.14356 0.569811,-1.0623 0.569801,-1.0623 1.738413,0 1.738402,0 0,-1.33364 0,-1.33363 1.949168,0 1.949166,0 0,1.33363 0,1.33364 1.077171,0 1.07717,0 0,-1.33364 0,-1.33363 1.949169,0 1.949166,0 0,1.33363 0,1.33364 5.79621,0 5.796204,0 0,-1.33364 0,-1.33363 1.949167,0 1.949168,0 0,1.33363 0,1.33364 1.07717,0 1.07717,0 0,-1.33364 0,-1.33363 1.949166,0 1.94917,0 0,1.33363 0,1.33364 1.738412,0 1.738402,0 0.56981,1.0623 0.569802,1.0623 -0.754664,2.14356 -0.75467,2.14359 -1.527899,0.0544 -1.527897,0.0546 -5.488443,1.89466 -5.488445,1.89463 -4.77693,0.0276 c -2.627301,0.0154 -4.800366,0.005 -4.829028,-0.0245 z m -82.631173,-5.7993 -1.23743,-5.02679 1.1114,0 1.11138,0 0,-1.33364 0,-1.33363 1.94917,0 1.94917,0 0,1.33363 0,1.33364 1.07715,0 1.07717,0 0,-1.33364 0,-1.33363 1.94916,0 1.94919,0 0,1.33363 0,1.33364 1.11653,0 1.11651,0 -0.54214,2.17998 c -0.29818,1.19901 -0.8535,3.46108 -1.23404,5.0268 l -0.69191,2.84683 -4.73195,0 -4.73193,0 z m 39.353163,2.19203 c -2.003041,-1.04923 -3.675433,-1.9383 -3.71644,-1.97567 -0.04108,-0.0375 -0.212999,-1.24394 -0.382176,-2.68121 -0.169176,-1.43728 -0.334654,-2.80944 -0.36772,-3.04923 l -0.0601,-0.436 0.519222,0 0.519222,0 0,-1.33364 0,-1.33364 1.949167,0 1.949174,0 0,1.33364 0,1.33364 1.077166,0 1.077176,0 0,-1.33364 0,-1.33364 1.949156,0 1.949167,0 0,1.33364 0,1.33364 3.334106,0 3.334099,0 0,5.02681 0,5.02679 -4.744673,-9.1e-4 -4.74469,-9.1e-4 -3.641868,-1.90769 z m 158.743748,-20.04228 -1.237429,-5.0268 1.111392,0 1.111392,0 0,-1.33365 0,-1.33363 1.949167,0 1.949169,0 0,1.33363 0,1.33365 1.077168,0 1.077168,0 0,-1.33365 0,-1.33363 1.949166,0 1.949165,0 0,1.33363 0,1.33365 1.116525,0 1.116537,0 -0.542146,2.17999 c -0.298188,1.19901 -0.853509,3.46104 -1.234054,5.0268 l -0.691908,2.84681 -4.731943,0 -4.731924,0 z"
       id="path4176"
       inkscape:connector-curvature="0"
       sodipodi:nodetypes="cccccccccccccccccccccccccccccccccccccccccccccccccccccccccccccccccccccccccccccccccccccccccccccccccccccccccccccccccccccccccccccccccccccccccccccccccccccccccccccccccccccccccccccccccccccccccccccccccccccccccccccccccccccccccccccsscccccscccccccscccccccccccccccccccccccccccccccccccccccccccccccccsscccccccccccccscccccccccccccccccccccsscccccccccccccccccccccccccscccccccccccccccccccccccccccccccccccccccccccccccccccccccccccccccccccccccccccccccccccccccccccccccccccccccccccccccccsccccccccccccccccccccccccccccccccccccccccccccccccccccccccccccccccccccccccssccccccsscccccccccccccccccccccccccccccccccccccccccccccccccccccccccccccccccccccccccccccccccccccccccccccccccccccccccccccccccccccccccccccccccccccccccccccccccccccccccccccccccccccccccccccccccccccccccccccccccccccccccccccccccccccccsscccccscccccccscccsccccccccccccccccccccccccccccccccccccccccccccccccccccccccccccccccccccccccssccccccsccccccccccccccccccccccccccccccccccccccccccccccsscccc" />
  </g>
  <g
     transform="translate(0,-64)"
     style="display:inline"
     inkscape:label="p1"
     id="g4193"
     inkscape:groupmode="layer">
    <path
       inkscape:connector-curvature="0"
       id="path4195"
       d=""
       style="fill:#000000" />
    <path
       inkscape:connector-curvature="0"
       id="path4197"
       d=""
       style="fill:#000000" />
    <path
       sodipodi:nodetypes="ccccccccc"
       inkscape:connector-curvature="0"
       id="path4199-4"
       d="m 108.19804,101.50753 0,-2.667274 9.48936,0 9.48937,0 0,2.667274 0,2.66729 -9.48937,0 -9.48936,0 z"
       style="display:inline;opacity:1;fill:#000000" />
    <path
       sodipodi:nodetypes="ccccccccc"
       inkscape:connector-curvature="0"
       id="path4199-6"
       d="m 112.91752,88.275926 0,-9.74585 4.77032,0 4.77034,0 0,9.74585 0,9.74583 -4.77034,0 -4.77032,0 z"
       style="display:inline;opacity:1;fill:#000000" />
    <path
       sodipodi:nodetypes="ccccccccccccccccccccsscccc"
       inkscape:connector-curvature="0"
       id="path4199-1"
       d="m 111.73272,72.680093 -1.23742,-5.026806 1.11138,0 1.11139,0 0,-1.333635 0,-1.333648 1.94917,0 1.94917,0 0,1.333648 0,1.333635 1.07716,0 1.07718,0 0,-1.333635 0,-1.333648 1.94916,0 1.94917,0 0,1.333648 0,1.333635 1.11653,0 1.11653,0 -0.54216,2.179993 c -0.29817,1.19899 -0.8535,3.461057 -1.23405,5.026808 l -0.6919,2.846808 -4.73194,0 -4.73192,0 z"
       style="display:inline;opacity:1;fill:#000000" />
    <path
       style="display:inline;opacity:1;fill:#000000"
       d="m 108.19813,110.40624 0,-5.53973 1.84658,0 1.84658,0 0,5.53973 0,5.53974 -1.84658,0 -1.84658,0 z m 15.28557,0 0,-5.53973 1.84658,0 1.84658,0 0,5.53973 0,5.53974 -1.84658,0 -1.84658,0 z"
       id="path4176-4-9"
       inkscape:connector-curvature="0"
       sodipodi:nodetypes="cccccccccccccccccc" />
  </g>
</svg>
